<?xml version="1.0" encoding="UTF-8" standalone="no"?>
<svg
   version="1.1"
   viewBox="0 0 91.5 91.400002"
   id="svg35"
   sodipodi:docname="course5.svg"
   width="91.5"
   height="91.400002"
   inkscape:version="1.1.2 (0a00cf5339, 2022-02-04)"
   xmlns:inkscape="http://www.inkscape.org/namespaces/inkscape"
   xmlns:sodipodi="http://sodipodi.sourceforge.net/DTD/sodipodi-0.dtd"
   xmlns="http://www.w3.org/2000/svg"
   xmlns:svg="http://www.w3.org/2000/svg">
  <sodipodi:namedview
     id="namedview37"
     pagecolor="#ffffff"
     bordercolor="#666666"
     borderopacity="1.0"
     inkscape:pageshadow="2"
     inkscape:pageopacity="0.0"
     inkscape:pagecheckerboard="0"
     showgrid="false"
     inkscape:zoom="2.4428997"
     inkscape:cx="251.75"
     inkscape:cy="45.64248"
     inkscape:window-width="2560"
     inkscape:window-height="1527"
     inkscape:window-x="0"
     inkscape:window-y="0"
     inkscape:window-maximized="1"
     inkscape:current-layer="svg35" />
  <defs
     id="defs4">
    <style
       id="style2">
      .cls-1 {
        fill: none;
      }

      .cls-2 {
        fill: #6c0d6a;
      }

      .cls-3 {
        fill: #6d6e71;
      }

      .cls-4 {
        fill: #2cb34a;
      }

      .cls-5 {
        fill: #fff;
      }

      .cls-6 {
        fill: #394a84;
      }

      .cls-7 {
        fill: #434345;
      }

      .cls-8 {
        fill: #00bade;
      }

      .cls-9 {
        fill: #f7941d;
      }

      .cls-10 {
        fill: #ef4136;
      }
    </style>
  </defs>
  <!-- Generator: Adobe Illustrator 28.6.0, SVG Export Plug-In . SVG Version: 1.2.0 Build 709)  -->
  <g
     id="g33">
    <g
       id="Layer_1">
      <g
         id="g30">
        <path
           class="cls-7"
           d="m 91.2,41.2 c -3,9.6 -8.4,20.4 -15.1,29 C 67.9,80.8 56.9,88 48.2,91.3 72.3,90 91.4,70 91.4,45.6 c 0,-24.4 0,-3 -0.2,-4.5 z"
           id="path6" />
        <path
           class="cls-7"
           d="M 21.8,6.7 C 36,4.8 51.9,4.6 61.5,8.4 59.5,5.7 57,3.2 54.4,0.8 51.6,0.3 48.7,0 45.8,0 37,0 28.9,2.5 21.9,6.7 Z"
           id="path8" />
        <path
           class="cls-9"
           d="M 65.9,86.8 C 71,78.6 65.9,58.5 51.6,41 c 2.5,-2.3 2.9,-3 5.3,-5.3 0.3,-0.3 0.6,-0.6 0.9,-0.9 L 50.5,35.5 63.9,29 c 0.8,0.9 1.9,1.9 2.7,2.9 10.6,12.8 16.5,27.2 17.1,39.3 -4.5,6.7 -10.6,12.1 -17.9,15.7 z M 21.6,6.9 c -2.5,1.5 -4.8,3.3 -6.9,5.3 6.8,-2.2 17.4,6.6 29.2,20 5.3,-3.4 10.2,-6.4 14.8,-8.9 C 46.5,12.6 32.8,6.5 21.6,6.9 Z"
           id="path10" />
        <path
           class="cls-3"
           d="m 52.8,0.5 c 12,12.1 30.6,35.7 32,52.1 2.5,-5 4.5,-10 6,-14.6 C 87.5,18.7 72.2,3.5 52.8,0.5 Z"
           id="path12" />
        <path
           class="cls-7"
           d="m 1.2,35.5 c 0,0.4 0,0.8 0,1.2 1.1,9.3 6.3,21.9 16.7,31.9 3.9,3.7 9.4,7 15.5,9.6 C 29.2,73.7 25.1,68.1 21.8,61.6 12.5,43.5 10.1,22.5 14.3,12.5 7.9,18.6 3.2,26.6 1.2,35.5 Z"
           id="path14" />
        <path
           class="cls-3"
           d="M 0.1,42.5 C 0.1,43.6 0,44.6 0,45.7 0,71 20.5,91.4 45.7,91.4 c 25.2,0 1.8,0 2.7,0 2.7,-1.2 5.5,-2.8 8.5,-4.9 C 43,83.6 26.7,77.1 17.9,68.6 9,60 2.8,50.6 0.1,42.5 Z"
           id="path16" />
        <path
           class="cls-4"
           d="m 69.5,6.7 c -7.3,1 -14.3,5.2 -21.8,12 -3.4,3.1 -4.3,10.3 -8,14.5 -2.2,2.4 -6.9,1.3 -8.8,3.9 C 20.3,51.8 15.4,69 17.5,81.7 c 5.1,4 11,6.9 17.4,8.4 C 28.7,82.9 39.9,47.8 55.2,31 63.9,21.5 70.3,14.6 76.5,11.9 74.3,9.9 72,8.1 69.4,6.6 Z"
           id="path18" />
        <path
           class="cls-1"
           d="M 29,37.3 C 21.3,49.5 17.2,63 17.2,74.5 22,66.5 31.3,56.4 41.3,48.1 c 2.3,-5.3 5.2,-10.3 8.4,-14.4 6,-7.7 13.1,-12.8 19.9,-15.8 -8.4,0.6 -18.3,3.9 -29.3,11 -4.1,2.7 -7.9,5.5 -11.2,8.4 z"
           id="path20" />
        <path
           class="cls-2"
           d="m 84.1,70.6 c 7,-18.7 3.4,-44.9 -0.5,-50.5 5,7.3 7.9,16.2 7.9,25.7 0,9.5 -2.7,17.7 -7.3,24.8 z M 15.8,80.3 C 21.5,67.8 41.4,45.6 56.9,32.9 73.1,19.6 78.3,13 83.5,20 81.9,17.7 80.2,15.6 78.2,13.6 68.8,15.3 56.5,21.9 41.4,31.7 22.8,43.8 11.6,58.2 8,71.7 c 2.2,3.2 4.8,6.1 7.8,8.7 z"
           id="path22" />
        <path
           class="cls-6"
           d="m 44.4,31.8 c -0.5,0.3 -1.1,0.7 -1.6,1.1 -0.2,0.1 -0.3,0.2 -0.5,0.3 C 27.4,21.2 11.4,21.4 4.5,28 3.6,28.9 2.9,29.9 2.4,31.1 4.5,24.8 8,19 12.5,14.3 c 2.9,-0.3 6,-0.3 9.2,0 6.6,3.1 14.8,9.1 22.6,17.5 z m 10.7,2.7 c -0.4,0.4 -3.6,4.2 -4.6,5.3 8.5,12.2 9,34.9 7.3,50.1 2.5,-0.7 5,-1.6 7.3,-2.7 3.5,-7.7 -0.3,-25.4 -10.4,-43 -1,-1.4 1.5,-8.4 0.4,-9.8 z"
           id="path24" />
        <path
           class="cls-10"
           d="m 17.9,76.3 c 0,0 0,-0.1 0.1,-0.2 5,-8.5 14.3,-19.6 24,-29.5 2.2,-4.7 4.7,-9.1 7.7,-12.9 6,-7.7 13.1,-12.8 19.9,-15.8 -8.4,0.6 -18.3,3.9 -29.3,11 -4.1,2.7 -7.9,5.5 -11.2,8.4 C 21.4,49.5 18,64.8 18,76.3 Z"
           id="path26" />
        <path
           class="cls-8"
           d="m 67.8,79.6 v 0 C 69.1,64.8 63.7,35.2 51.6,20.7 37.1,3.2 23.8,8.8 14.7,12.1 22.7,9.7 36,22.4 50.4,39.7 61.8,53.4 68,69.3 67.8,79.5 Z"
           id="path28" />
      </g>
    </g>
  </g>
</svg>
