<?xml version="1.0" encoding="UTF-8" standalone="no"?>
<svg
   id="Layer_1"
   data-name="Layer 1"
   version="1.1"
   viewBox="0 0 502.82547 365.215"
   sodipodi:docname="11.svg"
   inkscape:version="1.1.2 (0a00cf5339, 2022-02-04)"
   width="502.82547"
   height="365.215"
   xmlns:inkscape="http://www.inkscape.org/namespaces/inkscape"
   xmlns:sodipodi="http://sodipodi.sourceforge.net/DTD/sodipodi-0.dtd"
   xmlns="http://www.w3.org/2000/svg"
   xmlns:svg="http://www.w3.org/2000/svg">
  <sodipodi:namedview
     id="namedview17"
     pagecolor="#ffffff"
     bordercolor="#666666"
     borderopacity="1.0"
     inkscape:pageshadow="2"
     inkscape:pageopacity="0.0"
     inkscape:pagecheckerboard="0"
     showgrid="false"
     inkscape:zoom="1.7888889"
     inkscape:cx="245.96273"
     inkscape:cy="142.82609"
     inkscape:window-width="2560"
     inkscape:window-height="1527"
     inkscape:window-x="0"
     inkscape:window-y="0"
     inkscape:window-maximized="1"
     inkscape:current-layer="Layer_1" />
  <defs
     id="defs4">
    <style
       id="style2">
      .cls-1 {
      fill: #000;
      stroke-width: 0px;
      }
    </style>
  </defs>
  <path
     class="cls-1"
     d="m 217.24762,50.826871 h 20.55143 c 0.21709,0.651277 0.28946,1.302555 0.43419,1.953833 0.0724,1.157827 0,2.315654 0,3.473481 V 293.24693 c 0.796,0.14473 1.66437,0.28946 2.53274,0.36182 h 15.26885 c 1.08546,0 2.31565,-0.28946 3.40112,0.43419 0.14473,0.28945 0.21709,0.65127 0.28945,0.94073 v 18.38051 c 0,0.36182 -0.14472,0.65127 -0.28945,0.94073 -1.23019,0.65128 -2.53275,0.36182 -3.76294,0.36182 h -79.96244 c -6.15096,0.14473 -11.21645,-4.77604 -11.36118,-10.85463 V 51.188692 c 0.43419,-0.217093 0.94074,-0.361821 1.44729,-0.434186 h 18.01868 c 0.50655,0 0.94074,0.144729 1.37492,0.289457 0.14473,0.578914 0.21709,1.157827 0.28946,1.736741 V 288.61562 c 0,1.59201 -0.36182,3.25639 0.36182,4.70367 2.96693,0.50655 27.86021,0.50655 30.97188,0 0.0724,-0.57891 0.21709,-1.23019 0.21709,-1.88147 V 55.530543 c -0.0724,-1.592012 0,-3.184024 0.28945,-4.703672 v 0 z"
     id="path6"
     style="fill:#808080" />
  <path
     class="cls-1"
     d="m 335.85254,145.62397 h -20.69616 c -0.72364,-1.51965 -0.43419,-2.74984 -0.43419,-3.98003 V 75.503062 c 0,-1.085463 -0.0724,-2.24329 -0.14473,-3.473482 -0.86837,-0.144728 -1.59201,-0.289457 -2.24329,-0.289457 -9.33498,-0.289456 -25.83401,-0.144728 -28.87331,0.289457 -0.14473,0.651278 -0.28946,1.230192 -0.36182,1.881469 v 88.284321 c 0,1.37492 -0.14473,2.74984 0.28946,4.19712 1.23019,0.57892 2.53274,0.36182 3.76293,0.36182 h 46.38545 c 0.65128,0 1.37492,0.14473 2.17093,0.28946 0.0724,0.72364 0.21709,1.37492 0.28946,2.09856 0.0724,0.72364 0,1.15783 0,1.73674 V 301.7859 c 0,1.59202 -0.14473,3.18403 -0.50655,4.77604 -1.08547,4.70367 -5.21022,8.03243 -10.05863,8.17716 h -51.59567 c -1.88147,0.0724 -3.69057,-0.2171 -5.42731,-0.86837 -3.54585,-1.59202 -5.78914,-4.34186 -6.29569,-8.10479 -0.50655,-3.76294 -0.28945,-7.81534 0,-11.79537 1.23019,-0.36182 2.60511,-0.43418 3.90767,-0.36182 h 44.64871 c 1.23019,0 2.53275,0.14473 3.8353,-0.36182 0.0724,-0.72364 0.21709,-1.37492 0.21709,-2.0262 0.43419,-15.84776 0.14473,-99.50077 -0.28945,-102.90189 -1.15783,-0.72364 -2.46039,-0.36182 -3.69058,-0.36182 h -44.64871 c -1.23019,0 -2.53274,-0.0724 -3.90766,-0.14473 -0.0724,-0.86837 -0.2171,-1.51964 -0.2171,-2.17092 V 60.957858 c 0.2171,-5.427315 4.48658,-9.841531 9.9139,-10.34808 0.94073,-0.07236 1.8091,-0.144728 2.74984,-0.144728 h 57.81899 c 1.0131,0 2.0262,0.07236 2.96693,0.144728 0.86837,1.157827 0.57892,2.388019 0.57892,3.473481 v 87.271221 c 0,1.23019 0,2.46038 -0.14473,4.19712 v 0 z"
     id="path8"
     style="fill:#808080" />
  <path
     class="cls-1"
     d="m 262.04106,212.99504 c 3.25639,-0.50655 17.65686,-0.50655 20.76852,0 0.0724,0.57891 0.14473,1.23019 0.2171,1.88146 0.0724,0.65128 0,1.37492 0,2.09857 v 74.39039 c -0.43419,0.21709 -0.94074,0.36182 -1.44729,0.43419 h -18.30814 c -0.28946,0 -0.57891,-0.0724 -0.79601,-0.2171 -0.14473,-0.0724 -0.28945,-0.21709 -0.36182,-0.36182 0,-0.0724 -0.0724,-0.21709 -0.0724,-0.28945 0,-25.25511 0,-50.51021 -0.0724,-75.69295 0,-0.65128 0.0724,-1.37492 0.14473,-2.24329 z"
     id="path10"
     style="fill:#808080" />
  <path
     class="cls-1"
     d="m 143.5085,61.753864 c -0.14472,-3.039296 -1.44728,-5.8615 -3.61821,-7.960061 -2.24329,-2.026198 -5.21022,-3.184025 -8.17715,-3.111661 H 71.723221 c -0.651278,0 -1.302555,0 -1.953833,0.217093 -0.144729,0.361821 -0.289457,0.796006 -0.289457,1.157827 V 312.85763 c 0,0.43418 0.07236,0.86837 0.217093,1.8091 h 60.858286 c 0.94074,0 1.88147,0 2.74984,-0.0724 4.77604,-0.43419 8.32189,-3.47348 9.6968,-8.10479 0.43419,-1.80911 0.57892,-3.61821 0.50655,-5.49968 v -239.163671 0 z M 122.01634,293.31929 c -0.57892,0.14473 -1.08547,0.28946 -1.66438,0.28946 H 92.636474 c -0.434185,0 -0.86837,-0.0724 -1.664377,-0.21709 -0.144728,-0.50655 -0.217092,-1.08547 -0.217092,-1.59201 V 73.4045 c 0,-0.289457 0.07236,-0.578914 0.217092,-0.86837 0.07236,-0.144729 0.217093,-0.217093 0.361821,-0.289457 0.07237,0 0.217093,-0.07236 0.289457,-0.07236 9.479705,0 18.887055,-0.07236 28.366765,-0.07236 9.47971,0 1.15783,0.07236 1.88147,0.144729 0.14473,0.651278 0.28946,1.302555 0.36182,1.953833 V 288.76035 c 0.14473,1.51965 0,3.0393 -0.21709,4.55894 z"
     id="path12"
     style="fill:#808080" />
  <path
     class="cls-1"
     d="m 433.18238,60.089488 c -0.72364,-4.848401 -4.63131,-8.61134 -9.47971,-9.262617 -1.15782,-0.144729 -2.31565,-0.144729 -3.47348,-0.144729 h -80.68608 c -0.65128,0.07236 -1.23019,0.217093 -1.88147,0.434185 -0.50655,6.223321 -0.28945,18.09105 0.36182,20.696161 3.32876,0.289456 6.80224,0.07236 10.27572,0.144728 3.54585,0 7.09169,-0.07236 11.07172,0.07236 0,2.026198 0.0724,3.473482 0.0724,4.99313 V 312.49581 c 0,0.65127 0.14473,1.30255 0.14473,1.95383 0.36182,0.14473 0.796,0.21709 1.15782,0.28946 h 18.38051 c 0.50655,-0.0724 0.94073,-0.2171 1.37492,-0.43419 V 190.34504 c 0.0724,-0.72364 0.21709,-1.44728 0.36182,-2.17092 1.37492,0 2.67747,-0.0724 3.90767,-0.0724 h 37.70174 c 5.42732,-0.28946 9.40735,-3.61821 10.49281,-8.90079 0.28946,-1.44729 0.43419,-2.96694 0.36182,-4.48658 V 64.214247 c 0,-1.37492 0,-2.822204 -0.28946,-4.197123 h 0.14473 z m -20.91325,16.20958 v 90.165792 c -3.32875,0.57891 -28.22204,0.57891 -31.3337,0 -0.0724,-0.57892 -0.28945,-1.23019 -0.28945,-1.88147 V 76.660889 c 0,-1.37492 0,-2.74984 0.0724,-4.269488 0.57891,-0.217092 1.15783,-0.289457 1.73674,-0.361821 h 28.07731 c 0.50655,0 1.0131,0.144729 1.51965,0.217093 0.0724,0.723642 0.21709,1.37492 0.28945,2.026197 v 2.098562 h -0.0724 z"
     id="path14"
     style="fill:#808080" />
</svg>
