<?xml version="1.0" encoding="UTF-8" standalone="no"?>
<svg
   width="69.828491"
   height="57.821999"
   version="1.1"
   id="svg36"
   sodipodi:docname="course16.svg"
   inkscape:version="1.1.2 (0a00cf5339, 2022-02-04)"
   xmlns:inkscape="http://www.inkscape.org/namespaces/inkscape"
   xmlns:sodipodi="http://sodipodi.sourceforge.net/DTD/sodipodi-0.dtd"
   xmlns="http://www.w3.org/2000/svg"
   xmlns:svg="http://www.w3.org/2000/svg">
  <defs
     id="defs40" />
  <sodipodi:namedview
     id="namedview38"
     pagecolor="#ffffff"
     bordercolor="#666666"
     borderopacity="1.0"
     inkscape:pageshadow="2"
     inkscape:pageopacity="0.0"
     inkscape:pagecheckerboard="0"
     showgrid="false"
     inkscape:zoom="5.9671659"
     inkscape:cx="103.064"
     inkscape:cy="28.908196"
     inkscape:window-width="2560"
     inkscape:window-height="1527"
     inkscape:window-x="0"
     inkscape:window-y="0"
     inkscape:window-maximized="1"
     inkscape:current-layer="g34" />
  <g
     data-name="Group 506"
     id="g34"
     transform="translate(-5.0929582e-4)">
    <g
       data-name="Group 505"
       id="g32">
      <path
         data-name="Path 519"
         d="M 50.683,19.653 C 50.025,17.812 37.452,17.886 34.667,18.744 a 53.026,53.026 0 0 0 5.274,1.607 c 1.973,0.83 3.58,1.458 4.242,3.206 0.816,2.16 -0.135,4.791 -1.014,7.862 -0.089,0.287 -1.884,4.824 -1.88,4.836 2.258,-2.263 10.06,-14.781 9.394,-16.602 z"
         fill="none"
         id="path20" />
      <path
         data-name="Path 520"
         d="M 28.912,0 A 28.911,28.911 0 0 0 12.638,52.807 c 0.46,-0.676 0.759,-1.115 0.8,-1.183 3.275,-5.534 6.025,-10.469 6.391,-15.041 0.474,-5.672 -2.635,-8.117 -5.779,-12.018 -0.3,-0.347 -5.89,-5.09 -5.878,-5.121 5.339,-0.418 26.019,6.891 25.679,11.612 -0.22,3.035 -9.894,14.518 -18.322,23.481 A 28.911,28.911 0 1 0 28.916,0 Z m 12.377,36.252 c 0,-0.012 1.791,-4.549 1.88,-4.836 0.88,-3.071 1.831,-5.7 1.014,-7.861 -0.662,-1.747 -2.269,-2.375 -4.242,-3.206 a 53.019,53.019 0 0 1 -5.274,-1.607 c 2.786,-0.858 15.358,-0.931 16.016,0.909 0.666,1.823 -7.136,14.341 -9.394,16.601 z"
         fill="#004d90"
         id="path22" />
      <g
         data-name="Group 504"
         id="g30">
        <g
           data-name="Group 503"
           id="g28">
          <g
             data-name="Group 502"
             id="g26">
            <path
               data-name="Path 521"
               d="m 64.251,10.451 a 28.331,28.331 0 0 0 2.918,-1.547 c 0.474,-0.287 0.947,-0.59 1.4,-0.905 0.168,-0.115 1.113,-0.929 1.26,-0.838 -0.073,0.224 -0.369,0.4 -0.539,0.555 -0.2,0.188 -0.4,0.378 -0.594,0.571 -0.4,0.392 -0.791,0.79 -1.169,1.2 q -1.129,1.224 -2.132,2.552 a 36.129,36.129 0 0 0 -2.07,3.047 34.03,34.03 0 0 0 -0.931,1.613 c -0.149,0.273 -0.293,0.551 -0.44,0.83 -0.051,0.1 -0.317,0.741 -0.414,0.624 a 5.216,5.216 0 0 0 -0.321,-3.873 3.4,3.4 0 0 0 -1.355,-1.3 3.557,3.557 0 0 0 -0.9,-0.321 4.2,4.2 0 0 0 -0.47,-0.075 1.7,1.7 0 0 1 -0.45,-0.024 c -0.04,-0.182 1.25,-0.386 1.448,-0.436 q 0.808,-0.205 1.6,-0.458 a 27.546,27.546 0 0 0 3.159,-1.215 z"
               fill="#004d90"
               id="path24" />
          </g>
        </g>
      </g>
    </g>
  </g>
</svg>
