<?xml version="1.0" encoding="UTF-8" standalone="no"?>
<svg
   version="1.1"
   id="Layer_1"
   x="0px"
   y="0px"
   viewBox="389 -91 263.00001 192.8"
   xml:space="preserve"
   sodipodi:docname="course2.svg"
   inkscape:version="1.1.2 (0a00cf5339, 2022-02-04)"
   width="263"
   height="192.8"
   xmlns:inkscape="http://www.inkscape.org/namespaces/inkscape"
   xmlns:sodipodi="http://sodipodi.sourceforge.net/DTD/sodipodi-0.dtd"
   xmlns="http://www.w3.org/2000/svg"
   xmlns:svg="http://www.w3.org/2000/svg"><sodipodi:namedview
   id="namedview72"
   pagecolor="#ffffff"
   bordercolor="#666666"
   borderopacity="1.0"
   inkscape:pageshadow="2"
   inkscape:pageopacity="0.0"
   inkscape:pagecheckerboard="0"
   showgrid="false"
   inkscape:zoom="1.4925374"
   inkscape:cx="410.03999"
   inkscape:cy="97.484997"
   inkscape:window-width="2560"
   inkscape:window-height="1527"
   inkscape:window-x="0"
   inkscape:window-y="0"
   inkscape:window-maximized="1"
   inkscape:current-layer="Layer_1" />
<style
   type="text/css"
   id="style2">
	.st0{fill:#FFFFFF;}
	.st1{fill:#9E9E9E;}
	.st2{fill:none;}
	.st3{fill:#7CB5D8;}
	.st4{fill:#B0D235;}
	.st5{fill:#F7941E;}
	.st6{fill:url(#SVGID_1_);}
	.st7{fill:url(#SVGID_2_);}
	.st8{fill:url(#SVGID_3_);}
	.st9{fill:#545B7B;}
	.st10{fill:#828625;}
	.st11{fill:#BC3D19;}
</style>





<polygon
   class="st3"
   points="391,-39.5 406.3,-49.5 426.7,-45.1 411.1,-34.9 "
   id="polygon26"
   transform="translate(-2,-1)" />
<polygon
   class="st4"
   points="421.8,-59.6 437.1,-69.7 457.4,-65.3 441.8,-55 "
   id="polygon28"
   transform="translate(-2,-1)" />
<defs
   id="defs37">
<linearGradient
   id="SVGID_1_"
   gradientUnits="userSpaceOnUse"
   x1="773.16199"
   y1="126.7377"
   x2="773.94849"
   y2="126.8065"
   gradientTransform="matrix(376.6482,217.4579,217.4579,-376.6482,-318365.94,-120369.69)">
	<stop
   offset="0"
   style="stop-color:#6D6E71"
   id="stop30" />
	<stop
   offset="0.5"
   style="stop-color:#6D6E71;stop-opacity:0.1"
   id="stop32" />
	<stop
   offset="1"
   style="stop-color:#6D6E71;stop-opacity:0"
   id="stop34" />
</linearGradient>
</defs>
<polygon
   class="st5"
   points="452.6,-80 467.9,-90 488.2,-85.6 472.7,-75.4 "
   id="polygon39"
   transform="translate(-2,-1)" />

<polygon
   class="st6"
   points="411.2,42.2 548.6,102.8 569.2,87.9 426.6,32.1 "
   id="polygon41"
   style="fill:url(#SVGID_1_)"
   transform="translate(-2,-1)" />
<defs
   id="defs50">
<linearGradient
   id="SVGID_2_"
   gradientUnits="userSpaceOnUse"
   x1="773.11627"
   y1="126.6025"
   x2="773.87592"
   y2="126.9855"
   gradientTransform="matrix(381.8632,192.5543,192.5543,-381.8632,-319193.22,-100514.02)">
	<stop
   offset="0"
   style="stop-color:#6D6E71"
   id="stop43" />
	<stop
   offset="0.5"
   style="stop-color:#6D6E71;stop-opacity:0.1"
   id="stop45" />
	<stop
   offset="1"
   style="stop-color:#6D6E71;stop-opacity:0"
   id="stop47" />
</linearGradient>
</defs>
<polygon
   class="st7"
   points="472.7,1.7 631.9,24.5 654,10.2 488.2,-8.5 "
   id="polygon52"
   style="fill:url(#SVGID_2_)"
   transform="translate(-2,-1)" />
<defs
   id="defs61">
<linearGradient
   id="SVGID_3_"
   gradientUnits="userSpaceOnUse"
   x1="773.0871"
   y1="126.7187"
   x2="773.80249"
   y2="126.6151"
   gradientTransform="matrix(381.8632,192.5543,192.5543,-381.8632,-319193.22,-100514.02)">
	<stop
   offset="0"
   style="stop-color:#6D6E71"
   id="stop54" />
	<stop
   offset="0.5"
   style="stop-color:#6D6E71;stop-opacity:0.1"
   id="stop56" />
	<stop
   offset="1"
   style="stop-color:#6D6E71;stop-opacity:0"
   id="stop58" />
</linearGradient>
</defs>
<polygon
   class="st8"
   points="442,21.9 588.5,66.9 614.2,44.8 457.4,11.8 "
   id="polygon63"
   style="fill:url(#SVGID_3_)"
   transform="translate(-2,-1)" />
<polygon
   class="st9"
   points="411.2,-34.9 426.6,-45.2 426.6,32.1 411.2,42.2 "
   id="polygon65"
   transform="translate(-2,-1)" />
<polygon
   class="st10"
   points="442,-55.1 457.4,-65.3 457.4,11.8 442,22 "
   id="polygon67"
   transform="translate(-2,-1)" />
<polygon
   class="st11"
   points="472.7,-75.4 488.2,-85.6 488.2,-8.5 472.7,1.7 "
   id="polygon69"
   transform="translate(-2,-1)" />
</svg>
