<?xml version="1.0" encoding="UTF-8" standalone="no"?>
<svg
   viewBox="0 0 74.103994 76.134001"
   version="1.1"
   id="svg106"
   sodipodi:docname="course3.svg"
   width="74.103996"
   height="76.134003"
   inkscape:version="1.1.2 (0a00cf5339, 2022-02-04)"
   xmlns:inkscape="http://www.inkscape.org/namespaces/inkscape"
   xmlns:sodipodi="http://sodipodi.sourceforge.net/DTD/sodipodi-0.dtd"
   xmlns="http://www.w3.org/2000/svg"
   xmlns:svg="http://www.w3.org/2000/svg">
  <defs
     id="defs110" />
  <sodipodi:namedview
     id="namedview108"
     pagecolor="#ffffff"
     bordercolor="#666666"
     borderopacity="1.0"
     inkscape:pageshadow="2"
     inkscape:pageopacity="0.0"
     inkscape:pagecheckerboard="0"
     showgrid="false"
     inkscape:zoom="2.824022"
     inkscape:cx="217.77451"
     inkscape:cy="38.066275"
     inkscape:window-width="2560"
     inkscape:window-height="1527"
     inkscape:window-x="0"
     inkscape:window-y="0"
     inkscape:window-maximized="1"
     inkscape:current-layer="svg106" />
  <path
     data-name="Path 5223"
     d="m 29.85,50.612 0.033,-0.089 h 14.41 l 7.2,-12.344 H 37.082 Z"
     fill="#c0c0c0"
     id="path2" />
  <path
     data-name="Path 5224"
     d="M 44.735,51.284 H 29.883 v -0.585 l -0.752,-0.351 0.218,-0.587 h 0.11 l 7.18,-12.348 h 15.3 l 0.44,0.764 -0.219,0.383 z M 31.23,49.761 H 43.851 L 50.165,38.935 H 37.524 Z"
     fill="#00a1ed"
     id="path4" />
  <path
     data-name="Path 5225"
     d="m 29.816,25.632 h -0.005 l 7.27,12.545 14.354,-0.044 0.056,-0.1 -7.212,-12.4 z"
     fill="#edeeef"
     id="path6" />
  <path
     data-name="Path 5226"
     d="m 36.639,38.938 -8.665,-14.951 2,0.885 h 14.748 l 7.654,13.164 -0.5,0.856 z m -5.5,-12.544 6.386,11.019 12.7,-0.039 -6.385,-10.98 z"
     fill="#ffffff"
     id="path8" />
  <path
     data-name="Path 5227"
     d="M 29.812,25.63 22.58,38.067 29.85,50.612 37.08,38.17 Z"
     fill="#ae0721"
     id="path10" />
  <path
     data-name="Path 5228"
     d="M 29.8,52.222 29.163,50.956 21.695,38.067 29.813,24.106 37.966,38.175 Z M 23.465,38.068 29.853,49.091 36.2,38.174 29.814,27.154 Z"
     fill="#ffffff"
     id="path12" />
  <path
     data-name="Path 5229"
     d="M 23.966,63.7 H 37.55 l 6.767,-11.637 6.341,10.9 -6.769,11.649 H 30.31 Z M 30.317,51.27 H 43.008 L 36.665,62.179 H 23.973 Z M 16.3,50.5 l 6.309,-10.851 6.342,10.906 -6.31,10.85 z m 29.358,0.753 H 59.22 L 66,39.6 72.339,50.5 65.547,62.179 H 52.007 Z M 1.836,50.5 8.625,38.829 H 21.316 L 14.527,50.5 21.317,62.175 H 8.625 Z M 51.969,38.829 H 64.676 L 58.335,49.734 H 45.628 Z M 23.5,38.01 30.251,26.4 h 13.575 l 6.788,11.676 -6.309,10.848 -6.534,-11.238 -0.015,0.009 -0.009,-0.017 -1.328,0.762 6.57,11.3 H 30.318 Z M 45.615,26.383 h 12.72 l 6.351,10.923 H 51.965 Z M 16.246,25.63 22.58,14.737 l 6.339,10.9 -6.334,10.894 z M 1.77,25.63 8.559,13.954 H 21.265 L 14.476,25.63 21.264,37.305 H 8.558 Z M 23.908,13.954 h 12.7 l 6.35,10.92 H 30.257 Z m 28.058,0 H 65.544 L 72.334,25.63 66,36.521 59.22,24.86 H 45.626 Z M 30.245,1.523 H 43.823 L 50.612,13.2 44.278,24.091 37.5,12.432 H 23.9 Z M 29.36,0 22.131,12.432 H 7.674 L 0,25.63 7.264,38.124 0.066,50.5 7.74,63.7 H 22.2 l 7.23,12.434 H 44.773 L 52,63.7 H 66.43 L 74.104,50.5 66.883,38.08 66.895,38.058 66.886,38.043 74.1,25.63 66.425,12.43 H 51.936 L 44.708,0 Z"
     fill="#ffffff"
     id="path14" />
</svg>
