<?xml version="1.0" encoding="UTF-8"?>
<svg xmlns="http://www.w3.org/2000/svg" xmlns:xlink="http://www.w3.org/1999/xlink" width="62px" height="69px" viewBox="0 0 62 69" version="1.1"><title>Group</title><g id="Style-Guide-(as-of-05112021)" stroke="none" stroke-width="1" fill="none" fill-rule="evenodd"><g id="2.0_Color@2x" transform="translate(-100.000000, -25.000000)"><g id="FINAL_EECS_logo-black" transform="translate(100.000091, 25.456330)"><g id="Group" transform="translate(-0.000000, 0.000000)"><path d="M11.4657267,44.9920299 C10.820734,43.8749243 11.2048103,42.44627 12.3228281,41.8008211 L25.9110097,33.9559942 L0.000456147626,18.9961767 C0,40.8693676 0.000456147626,40.5240639 0,45.2406303 C0,47.3234004 0.135475845,49.1270081 1.17777317,50.9319842 C2.21961435,52.7369604 3.71395397,53.7564503 5.51756168,54.7978354 C9.60281982,57.1561186 9.30358698,56.9836948 28.2464856,67.9198341 L28.2464856,38.0006552 L14.658304,45.8459382 C13.53983,46.4913871 12.1107195,46.1091354 11.4657267,44.9920299" id="Fill-2" fill="#662D91"/><path d="M49.7012979,44.992486 C49.0563052,46.1095915 47.6271947,46.4913871 46.5087207,45.8454821 L32.9209952,38.0006552 L32.9209952,67.9198341 C51.8634377,56.9832386 51.564661,57.1556625 55.6499191,54.7978354 C57.4535269,53.7564503 58.9474103,52.7369604 59.9897077,50.9319842 C61.0315488,49.1270081 61.1674808,47.3234004 61.1674808,45.2406303 C61.1670247,40.5240639 61.1670247,40.8689115 61.1670247,18.9961767 L35.2564711,33.955538 L48.8441966,41.8003649 C49.9626705,42.44627 50.3462907,43.8753805 49.7012979,44.992486" id="Fill-4" fill="#00A1C7"/><path d="M30.5836036,11.8794526 C31.8735891,11.8794526 32.9186233,12.9263114 32.9186233,14.2176654 L32.9186233,29.9077752 L58.8291769,14.9484139 C39.8867344,4.01136222 40.1855111,4.18424217 36.1011652,1.8255028 C34.2975575,0.784117769 32.6677421,0 30.5831474,0 C28.4990089,0 26.8691934,0.784117769 25.0655857,1.8255028 C20.9807837,4.18424217 21.2800166,4.01136222 2.33711798,14.9484139 L28.2476716,29.9077752 L28.2476716,14.2176654 C28.2476716,12.9263114 29.2936181,11.8794526 30.5836036,11.8794526" id="Fill-6" fill="#C6168D"/></g></g></g></g></svg>