<?xml version="1.0" encoding="UTF-8" standalone="no"?>
<svg
   viewBox="93.217 -87.533 407.04811 336.73345"
   version="1.1"
   id="svg16"
   sodipodi:docname="EC.svg"
   inkscape:version="1.1.2 (0a00cf5339, 2022-02-04)"
   width="407.0481"
   height="336.73346"
   xmlns:inkscape="http://www.inkscape.org/namespaces/inkscape"
   xmlns:sodipodi="http://sodipodi.sourceforge.net/DTD/sodipodi-0.dtd"
   xmlns="http://www.w3.org/2000/svg"
   xmlns:svg="http://www.w3.org/2000/svg">
  <defs
     id="defs20" />
  <sodipodi:namedview
     id="namedview18"
     pagecolor="#ffffff"
     bordercolor="#666666"
     borderopacity="1.0"
     inkscape:pageshadow="2"
     inkscape:pageopacity="0.0"
     inkscape:pagecheckerboard="0"
     showgrid="false"
     inkscape:zoom="1.6323693"
     inkscape:cx="365.11346"
     inkscape:cy="167.54787"
     inkscape:window-width="2560"
     inkscape:window-height="1527"
     inkscape:window-x="0"
     inkscape:window-y="0"
     inkscape:window-maximized="1"
     inkscape:current-layer="svg16" />
  <path
     class="cls-6"
     d="m 175.06378,52.492 c -7.34,-2.11 -11.38,7.68 -5.37,11.6 8.13,3.61 15.21,-9.78 5.13,-11.64"
     style="fill:#999999"
     id="path8" />
  <path
     class="cls-6"
     d="m 436.93378,175.022 c -15.49,93.19 -183.78,82.82 -249.46,53.5 -47.92,-20.68 -25.12,-53 -50.39,-59.57 -3.13,-0.93 -2.88,-5.68 -1.28,-7.93 9.38,-17.67 23.46,5.89 34.8,9.86 2.27,2.35 4,-2 5.61,-3.23 8.77,-6.1 12.74,3.15 17.1,8.07 8.89,6.08 23.12,17.39 30.23,3.67 7.63,-2.6 11.51,0 15.71,6.44 3.76,0.17 4.77,5.83 9.12,4.87 a 72.38,72.38 0 0 1 25.5,-0.41 c 5.32,-2.67 -5.18,-13.69 9.92,-14.5 23.29,9.55 -17.55,19.7 36.2,17 2.41,-0.1 1.62,-3.27 1.94,-4.95 1.95,-8.86 16.44,-10.56 18.26,-0.75 4.29,6.3 12.11,-4.57 18.45,-1.39 24.77,3.11 17.09,-8.81 27.71,-13.41 4.06,-1.26 7.63,1.37 10.34,3.93 5,-1 10.08,-2.12 15.25,-1.94 4.08,-4.07 15.14,-15.83 19.62,-7 0.78,-7.62 3.54,-18.68 13.49,-15 a 4.87,4.87 0 0 0 6.9,0.48 c 11.89,-9.72 10,-18.73 26.31,-24.21 l -14.53,-1.52 c 3.84,-8.07 14,-8.19 18.17,-15.73 -6.74,0.22 -10.72,3.48 -14.77,8.68 -1.12,2.6 -6,4 -3.77,7.18"
     style="fill:#999999"
     id="path10" />
  <path
     class="cls-6"
     d="m 436.93378,175.022 c 9.37,-4.14 34.23,-3.76 23,-19.7 16.37,-6.71 5.69,-11.07 26.57,-12.5 12.18,-4 -1,-21.24 -9,-12.33 l -0.3,-0.54 0.14,0.5 c 1.38,-19 28.17,-2.83 22,-24.36 -2.5,-2.61 -6.84,-2.76 -10.24,-2.42 0.69,-3.56 -0.75,-9 -5,-9.14 -12.62,-1.35 -15.41,17.78 -29.66,22.78 -8.5,-12.47 -2.74,-11.54 4.11,-21.91 0.73,-11.25 4.86,-9.17 14,-11.81 9.62,-8.85 -7.51,-20.79 -12.15,-8.2 l -0.08,-0.11 c 0.55,13.5 -18.49,12.38 -22.59,24.75 -5.43,-9.36 -10.85,-17.12 -22.32,-15.84 -2.43,-11.87 10.53,-16.15 15.06,-24.46 1.87,-9.91 -11.44,-13.94 -16.41,-5.53 -6.57,21.53 -8.22,30 -32.64,22.08 -8.51,-2.18 -27.33,7.11 -25.34,-8.22 -0.95,-11.24 1.47,-11.88 8.2,-18.58 2,-7 -5.73,-12.81 -11.4,-7.7 -1.41,10 -0.43,27 -13.06,30.45 -15.22,-1.58 -34,7.52 -31.8,-16.37 11.15,-8.2 2.15,-25 -8.13,-12.61 -1.41,3.33 -0.19,7.72 2.13,10.29 -0.14,9.38 -4.63,19.85 -15.66,17.14 -13.94,2.62 -18,-5.55 -21.7,-17.23 0,-6 7.69,-11.69 0.67,-16.75 -21.25,-5.89 1,23 -10.43,30.89 -6.48,1.16 -13.67,-0.9 -20.1,1.46 -11.34,13.54 -18.52,0.69 -28,-7.31 -1.98,-4.85 1.76,-13.43 -5.22,-15.43 -13.23,-2.27 -8.28,14.11 1,15.8 7.56,10.62 15.33,32.79 -6.4,28.93 -5.69,-3.17 -9.44,-26.33 -16.61,-14.18 -0.48,6.46 8.73,11.82 4.61,17.63 -3.56,4.09 -11.61,5.43 -14.84,0.33 -8.38,-7.24 -10.4,-15.34 -11.89,-25.59 -4.46,-6.68 -15.2,-0.43 -11.49,6.78 1.46,5 6.91,6.1 9.32,9.81 10.54,20.23 -13.93,6.62 -19.46,20.43 -5.37,2 -8.59,-9.64 -14.24,-11 -4.14,-2.82 -9.94,-6.57 -9.74,-12.14 -0.93,-12 -20.339997,-10.15 -14.709997,2.52 15.869997,8.1 13.809997,4.77 23.399997,23 9.76,10.79 -2.74,7.62 0.12,20.93 -8.52,-1.06 -10.27,-9.08 -15.57,-14.21 -7.139997,-4.04 -14.329997,3.52 -11.049997,10.76 5.53,6.67 16.849997,0.79 20.999997,11.13 -7.41,-0.31 -8.46,11.41 -2.7,14.69 4.48,2.62 10.69,-0.72 14.44,3 10.28,12 28.83,22.66 42.17,8.9 l -1.83,1.84 c 54.94,-41.31 188.63,-48.65 242.5,4.73 6.82,7.45 18.48,12 27.3,4.61"
     style="fill:#999999"
     id="path12" />
  <path
     class="cls-6"
     d="m 321.22378,-76.508 c 0.21,14.71 -22.89,14.71 -22.67,0 -0.22,-14.7 22.88,-14.7 22.67,0 z"
     style="fill:#999999"
     id="path14" />
</svg>
