<?xml version="1.0" encoding="UTF-8" standalone="no"?>
<!-- Generator: Adobe Illustrator 23.0.3, SVG Export Plug-In . SVG Version: 6.00 Build 0)  -->

<svg
   version="1.1"
   id="Layer_1"
   x="0px"
   y="0px"
   viewBox="0 0 98.500002 67.6"
   xml:space="preserve"
   role="img"
   aria-labelledby="hst-logo-svg-title"
   sodipodi:docname="course-hst.svg"
   width="98.5"
   height="67.599998"
   inkscape:version="1.1.2 (0a00cf5339, 2022-02-04)"
   xmlns:inkscape="http://www.inkscape.org/namespaces/inkscape"
   xmlns:sodipodi="http://sodipodi.sourceforge.net/DTD/sodipodi-0.dtd"
   xmlns="http://www.w3.org/2000/svg"
   xmlns:svg="http://www.w3.org/2000/svg"><defs
   id="defs96" /><sodipodi:namedview
   id="namedview94"
   pagecolor="#ffffff"
   bordercolor="#666666"
   borderopacity="1.0"
   inkscape:pageshadow="2"
   inkscape:pageopacity="0.0"
   inkscape:pagecheckerboard="0"
   showgrid="false"
   inkscape:zoom="2.3392926"
   inkscape:cx="262.89999"
   inkscape:cy="33.984633"
   inkscape:window-width="2560"
   inkscape:window-height="1527"
   inkscape:window-x="0"
   inkscape:window-y="0"
   inkscape:window-maximized="1"
   inkscape:current-layer="Layer_1" />
  <title
   id="hst-logo-svg-title">Harvard-MIT Health Sciences and Technology</title>
<style
   type="text/css"
   id="style3">
	.st0{fill-rule:evenodd;clip-rule:evenodd;fill:#FFFFFF;}
	.st1{fill:#373433;}
	.st2{fill-rule:evenodd;clip-rule:evenodd;fill:#A90533;}
	.st3{fill-rule:evenodd;clip-rule:evenodd;fill:#A41F36;}
</style>
<rect
   class="st0"
   width="98.300003"
   height="67.599998"
   id="rect5"
   x="0"
   y="0" />

<g
   id="g91">
	<path
   class="st2"
   d="M 86,0 V 23.3 H 84.4 V 18.9 H 75.6 V 46.1 H 80 v 1.7 H 66.1 V 46.1 H 71 V 18.9 h -9.1 v 11.6 h -2.1 v -0.8 c -0.1,-1 -0.4,-2.6 -1.3,-3.3 -2.3,-2.1 -6.1,-2.1 -7.9,0.1 -1.9,2.3 -1.4,6.1 1.8,8.3 2.5,1.7 5,3.1 7.5,4.8 3.8,2.7 4.9,5.9 3.7,9.5 -1.4,3.9 -4.3,5.9 -8.8,6.1 -3,0.1 -6.1,-1.1 -8.2,-2.4 V 67.6 H 98.5 V 0 Z"
   id="path85" />
	<path
   class="st3"
   d="m 23.3,17.4 v 1.5 H 20.1 V 31 H 37.3 V 18.9 H 34 v -1.5 h 10.8 v 1.5 h -3.2 v 27.9 h 5.3 v 0 c 1.1,4.3 3.8,5.6 7.6,5.4 2.6,-0.1 5,-1.4 5.4,-4.1 0.4,-2.7 -1.4,-4.7 -3.5,-6.1 -2.6,-1.6 -5.3,-3.1 -7.9,-4.8 -5.1,-3.5 -4.9,-10.7 0.5,-13.3 2.2,-1.1 3.1,-1.2 5.7,-1.3 1.3,-0.1 3.7,0.5 5,0.8 v -6 h 0.1 V 17.3 H 84.4 V 0 H 0 v 17.4 z"
   id="path87" />
	<polygon
   class="st2"
   points="34,46.8 37.3,46.8 37.3,34.2 20.1,34.2 20.1,46.8 23.5,46.8 23.5,48.3 12.7,48.3 12.7,46.8 15.4,46.8 15.4,18.9 0,18.9 0,67.6 44.8,67.6 44.8,48.3 34,48.3 "
   id="polygon89" />
</g>
</svg>
