<?xml version="1.0" encoding="iso-8859-1"?>
<!-- Uploaded to: SVG Repo, www.svgrepo.com, Generator: SVG Repo Mixer Tools -->
<svg fill="#e5686d" height="800px" width="800px" version="1.1" id="Layer_1" xmlns="http://www.w3.org/2000/svg" xmlns:xlink="http://www.w3.org/1999/xlink"
	 viewBox="0 0 512 512" xml:space="preserve">
<g>
	<g>
		<path d="M426.244,184.456h-48.926v-18.41c6.263-4.164,10.396-11.279,10.396-19.363c0-8.152-4.206-15.313-10.557-19.462
			c-3.649-2.383-8.002-3.781-12.686-3.781H147.533c-4.684,0-9.037,1.398-12.686,3.781c-6.352,4.148-10.557,11.309-10.557,19.462
			c0,8.086,4.133,15.2,10.396,19.363v18.41H85.758c-12.837,0-23.243,10.407-23.243,23.243v91.365
			c0,12.837,10.407,23.243,23.243,23.243h48.926v128.853c0.649-0.121,1.316-0.192,2-0.192h238.632c0.685,0,1.351,0.071,2,0.192
			V322.308h48.926c12.836,0,23.243-10.407,23.243-23.243V207.7C449.487,194.861,439.08,184.456,426.244,184.456z M256,320.788
			c-37.168,0-67.406-30.238-67.406-67.406s30.238-67.406,67.406-67.406c37.168,0,67.406,30.238,67.406,67.406
			S293.169,320.788,256,320.788z"/>
	</g>
</g>
<g>
	<g>
		<path d="M279.245,36.707V23.243C279.245,10.407,268.838,0,256.002,0c-12.837,0-23.243,10.407-23.243,23.243v13.466
			c-38.908,7.582-71.205,33.814-87.212,68.985h220.911v-0.002C350.45,70.522,318.153,44.289,279.245,36.707z"/>
	</g>
</g>
<g>
	<g>
		<path d="M397.25,465.513h-11.747H126.499h-11.747c-12.837,0-23.243,10.407-23.243,23.243c0,12.836,10.407,23.243,23.243,23.243
			H397.25c12.837,0,23.243-10.407,23.243-23.243C420.493,475.92,410.086,465.513,397.25,465.513z"/>
	</g>
</g>
</svg>
