<?xml version="1.0" encoding="UTF-8" standalone="no"?>
<!-- Created with Inkscape (http://www.inkscape.org/) -->

<svg
   width="102.33666mm"
   height="25.730202mm"
   viewBox="0 0 102.33667 25.730202"
   version="1.1"
   id="svg5"
   xmlns="http://www.w3.org/2000/svg"
   xmlnsSvg="http://www.w3.org/2000/svg">
  <defs
     id="defs2" />
  <g
     id="layer1"
     transform="translate(-38.638464,-57.554113)">
    <g
       aria-label="hydrant"
       id="text15361"
       style="font-weight:bold;font-size:25.4px;font-family:Epilogue;-inkscape-font-specification:'Epilogue Bold';letter-spacing:0px;stroke-width:0.264583">
      <path
         d="m 48.074563,77.404213 v -4.7244 q 0,-0.2286 0,-0.6604 0,-0.4318 0,-0.8636 0,-0.4445 0,-0.6985 0,-1.4097 -0.4699,-2.2098 -0.4699,-0.8001 -1.8415,-0.8001 -0.889,0 -1.4732,0.3556 -0.5715,0.3556 -0.8509,1.016 -0.2794,0.6604 -0.2794,1.5748 l -1.066799,-0.9017 q 0,-1.7653 0.711199,-3.0734 0.7112,-1.3208 1.9812,-2.0447 1.27,-0.7239 2.9464,-0.7239 2.4892,0 3.6703,1.4605 1.1938,1.4478 1.1938,4.0386 0,0.6604 0,1.6002 0,0.9398 0,2.2352 v 4.4196 z m -9.436099,0 v -19.8501 h 4.521199 v 19.8501 z"
         style="fill:#1499e1"
         id="path192" />
      <path
         d="m 56.227955,83.284313 q -0.6858,0 -1.2065,-0.0508 -0.5207,-0.0381 -0.6604,-0.0889 v -3.3401 q 0.1651,0.0762 0.5842,0.1143 0.4318,0.0381 0.9144,0.0381 0.5715,0 1.0414,-0.2286 0.4826,-0.2159 0.8382,-0.6223 0.3556,-0.3937 0.5461,-0.9652 l 0.1778,-0.5207 -4.6482,-13.7033 h 4.7244 l 2.6543,10.8839 h -0.508 l 2.5527,-10.8839 h 4.6482 l -4.5212,13.9954 q -0.5715,1.7272 -1.397,2.921 -0.8128,1.2065 -2.1717,1.8288 -1.3589,0.6223 -3.5687,0.6223 z"
         style="fill:#1499e1"
         id="path194" />
      <path
         d="m 74.693776,77.721713 q -1.6891,0 -3.1369,-0.8001 -1.4351,-0.8128 -2.3114,-2.4003 -0.8763,-1.5875 -0.8763,-3.937 0,-2.2352 0.9017,-3.7846 0.9017,-1.5494 2.3495,-2.3495 1.4478,-0.8001 3.0734,-0.8001 1.6129,0 2.9337,0.8382 1.3208,0.8255 2.1082,2.2606 0.7874,1.4351 0.7874,3.2893 0,0.0635 0,0.127 0,0.0635 0,0.1397 l -1.7526,0.0127 q 0,-0.0381 0,-0.0762 0,-0.0508 0,-0.0889 0,-0.9017 -0.4318,-1.5113 -0.4191,-0.6223 -1.0668,-0.9398 -0.6477,-0.3302 -1.3462,-0.3302 -1.1303,0 -2.0066,0.762 -0.8763,0.7493 -0.8763,2.4511 0,1.7018 0.8763,2.4892 0.8763,0.7874 2.0066,0.7874 0.7239,0 1.3716,-0.3429 0.6477,-0.3429 1.0541,-0.9779 0.4191,-0.6477 0.4191,-1.5367 l 1.7526,0.1016 q 0,1.8415 -0.7874,3.3401 -0.7747,1.4986 -2.0955,2.3876 -1.3208,0.889 -2.9464,0.889 z m 4.0767,-0.3175 v -19.8501 h 4.5339 v 19.8501 z"
         style="fill:#1499e1"
         id="path196" />
      <path
         d="m 86.060278,77.404213 v -13.4874 h 4.533899 v 4.826 l -0.8509,-0.6096 q 0.1778,-1.0033 0.5588,-1.8288 0.381,-0.8382 0.9779,-1.4224 0.6096,-0.5969 1.4097,-0.9144 0.8128,-0.3175 1.8288,-0.3175 0.8255,0 1.2573,0.1143 0.4445,0.1143 0.5588,0.1778 l -0.6731,4.0005 q -0.1143,-0.0635 -0.508,-0.1905 -0.3937,-0.1397 -0.9779,-0.1397 -1.0033,0 -1.7018,0.3302 -0.6858,0.3175 -1.1049,0.8636 -0.4064,0.5461 -0.5969,1.2192 -0.1778,0.6731 -0.1778,1.3462 v 6.0325 z"
         style="fill:#1499e1"
         id="path198" />
      <path
         d="m 102.74808,77.696313 q -1.4605,0 -2.6035,-0.4572 -1.142999,-0.4699 -1.803399,-1.3589 -0.6604,-0.889 -0.6604,-2.159 0,-1.4605 0.8255,-2.3622 0.8255,-0.9144 2.146299,-1.3843 1.3208,-0.4826 2.794,-0.6223 2.1336,-0.2032 2.9083,-0.3556 0.7874,-0.1651 0.7874,-0.5588 0,-0.0127 0,-0.0127 0,-0.0127 0,-0.0127 0,-0.6096 -0.6477,-0.9906 -0.635,-0.381 -1.7526,-0.381 -1.1811,0 -1.7907,0.4318 -0.5969,0.4191 -0.5969,1.2827 h -4.470399 q 0,-1.6637 0.9144,-2.794 0.9271,-1.143 2.489199,-1.7272 1.5621,-0.5842 3.4925,-0.5842 1.8288,0 3.3909,0.5461 1.5748,0.5461 2.54,1.6637 0.9779,1.1176 0.9779,2.8448 0,0.2667 0,0.5334 0,0.2667 0,0.5334 v 4.4704 q 0,0.5334 0.0254,1.0414 0.0254,0.4953 0.1397,0.9144 0.1397,0.4572 0.3429,0.7747 0.2159,0.3175 0.3429,0.4318 h -4.4323 q -0.1016,-0.1016 -0.3048,-0.3937 -0.1905,-0.2921 -0.3302,-0.6731 -0.1651,-0.508 -0.2413,-0.9779 -0.0762,-0.4826 -0.0762,-1.143 l 0.9652,0.6604 q -0.3556,0.8763 -1.1684,1.5113 -0.8001,0.635 -1.8923,0.9779 -1.0922,0.3302 -2.3114,0.3302 z m 1.2954,-3.2893 q 0.7874,0 1.5113,-0.3175 0.7239,-0.3175 1.1938,-1.016 0.4699,-0.6985 0.4699,-1.8669 v -0.9271 l 1.143,1.016 q -0.8382,0.2921 -1.905,0.4953 -1.0668,0.1905 -2.0828,0.2921 -1.0795,0.1143 -1.6129,0.3683 -0.5334,0.254 -0.5334,0.8382 0,0.5588 0.4572,0.8382 0.4699,0.2794 1.3589,0.2794 z"
         style="fill:#e43a45"
         id="path200" />
      <path
         d="m 123.7666,77.404213 v -5.4864 q 0,-0.4445 0,-0.8382 0,-0.4064 0,-0.7112 0,-0.762 -0.1778,-1.4224 -0.1651,-0.6731 -0.6604,-1.0795 -0.4826,-0.4191 -1.4732,-0.4191 -0.8509,0 -1.4351,0.381 -0.5842,0.3683 -0.8763,1.0541 -0.2921,0.6858 -0.2921,1.6129 l -1.0414,-0.9017 q 0,-1.8034 0.7493,-3.1369 0.762,-1.3335 2.0574,-2.0701 1.2954,-0.7366 2.9083,-0.7366 1.6891,0 2.7305,0.6858 1.0541,0.6858 1.5367,1.905 0.4953,1.2192 0.4953,2.8067 0,0.6731 0,1.524 0,0.8509 0,1.7653 v 5.0673 z m -9.4361,0 v -13.4874 h 4.5212 v 13.4874 z"
         style="fill:#e43a45"
         id="path202" />
      <path
         d="m 137.76202,77.709013 q -0.8255,0 -1.7272,-0.1397 -0.9017,-0.127 -1.6764,-0.5334 -0.7747,-0.4064 -1.2573,-1.2192 -0.4826,-0.8128 -0.4826,-2.159 0,-0.2921 0,-0.5715 0,-0.2921 0,-0.5842 v -5.1562 h -3.0607 v -3.429 h 0.4699 q 0.8763,0 1.397,-0.0762 0.5207,-0.0762 0.7747,-0.381 0.254,-0.3048 0.3302,-0.9398 0.0889,-0.6477 0.0889,-1.7907 v -1.2446 h 4.5466 v 4.4323 h 3.81 v 3.429 h -3.81 v 4.2799 q 0,0.2159 0,0.4191 0,0.1905 0,0.3937 0,0.8001 0.1905,1.3335 0.1905,0.5334 0.9906,0.5334 0.4445,0 0.8382,-0.0889 0.3937,-0.0889 0.5842,-0.1651 v 3.3274 q -0.2794,0.1143 -0.8001,0.2159 -0.5207,0.1143 -1.2065,0.1143 z"
         style="fill:#e43a45"
         id="path204" />
    </g>
  </g>
</svg>
